<?xml version="1.0" encoding="UTF-8" standalone="no"?>
<svg
   xmlns:dc="http://purl.org/dc/elements/1.1/"
   xmlns:cc="http://creativecommons.org/ns#"
   xmlns:rdf="http://www.w3.org/1999/02/22-rdf-syntax-ns#"
   xmlns:svg="http://www.w3.org/2000/svg"
   xmlns="http://www.w3.org/2000/svg"
   version="1.1"
   id="svg2"
   viewBox="0 0 99.999997 50"
   height="50"
   width="100">
  <defs
     id="defs4" />
  <metadata
     id="metadata7">
    <rdf:RDF>
      <cc:Work
         rdf:about="">
        <dc:format>image/svg+xml</dc:format>
        <dc:type
           rdf:resource="http://purl.org/dc/dcmitype/StillImage" />
        <dc:title></dc:title>
      </cc:Work>
    </rdf:RDF>
  </metadata>
  <g
     transform="translate(0,-1002.3622)"
     id="layer1">
    <flowRoot
       style="font-style:normal;font-weight:normal;font-size:40px;line-height:125%;font-family:sans-serif;letter-spacing:0px;word-spacing:0px;fill:#000000;fill-opacity:1;stroke:none;stroke-width:1px;stroke-linecap:butt;stroke-linejoin:miter;stroke-opacity:1"
       id="flowRoot4698"
       xml:space="preserve"><flowRegion
         id="flowRegion4700"><rect
           y="4.7956734"
           x="4.7982244"
           height="41.668793"
           width="91.923882"
           id="rect4702" /></flowRegion><flowPara
         id="flowPara4704">as</flowPara></flowRoot>    <text
       transform="scale(0.94352876,1.0598511)"
       id="text4706"
       y="976.72748"
       x="16.990789"
       style="font-style:normal;font-weight:500;font-size:22.75624997px;line-height:125%;font-family:'AvantGarde LT Medium';letter-spacing:0px;word-spacing:0px;fill:#cccccc;fill-opacity:1;stroke:none;stroke-width:1px;stroke-linecap:butt;stroke-linejoin:miter;stroke-opacity:1;-inkscape-font-specification:'AvantGarde LT Medium, Medium';font-stretch:normal;font-variant:normal;text-anchor:start;text-align:start;writing-mode:lr;"
       xml:space="preserve"><tspan
         y="976.72748"
         x="16.990789"
         id="tspan4708">feelincs</tspan></text>
    <path
       d="m 2.7119904,1027.1377 c 0.4274315,-0.3793 0.875355,-0.7359 1.2722505,-1.1488 0.3683107,-0.3831 0.4466801,-0.5058 0.7766625,-0.9275 0.7268944,-0.9732 1.3061414,-2.0542 1.6943902,-3.2064 0.085059,-0.2524 0.1514336,-0.5107 0.2271503,-0.7661 0.3473776,-1.3143 0.4379287,-2.6719 0.4686731,-4.0249 0.048148,-0.8136 -0.057187,-1.6116 -0.2568585,-2.3982 -0.1748134,-0.5838 -0.4535756,-1.1189 -0.846,-1.5832 -0.2593324,-0.3296 -0.5777277,-0.4986 -0.9827692,-0.567 -0.063865,0 -0.1296358,-0.011 -0.191594,0 -0.060943,0.015 -0.2228617,0.1162 -0.167837,0.086 0.5236073,-0.2887 1.0263714,-0.6201 1.5736567,-0.8609 0.085671,-0.038 -0.1149208,0.15 -0.1526525,0.2357 -0.1147828,0.2605 -0.1481933,0.5822 -0.1947494,0.8549 -0.1659838,1.5934 -0.1451887,3.1998 -0.16489,4.8 -0.086111,2.6155 0.037864,5.2287 0.2363463,7.836 0.1775336,1.9577 0.3842571,3.9145 0.697255,5.8558 0.09719,0.6027 0.3679974,2.1061 0.4766097,2.7147 0.3925991,2.4787 0.8290281,4.9512 1.1380363,7.4421 0.2041139,1.9546 0.5377249,3.8919 0.7712029,5.8428 0.06367,0.6048 0.116976,1.2105 0.164139,1.8168 0.02081,0.2675 0.05425,0.5247 0.0128,0.7903 -0.626386,0.3147 -1.2141239,0.7224 -1.8791599,0.944 -0.099714,0.033 -0.1232612,-0.1703 -0.1826957,-0.257 -0.4494096,-0.6554 -0.8261067,-1.3386 -1.1943495,-2.0424 -0.120902,-0.2395 -0.2498302,-0.4752 -0.3627061,-0.7187 -0.3770461,-0.8132 -0.6950759,-1.6566 -1.0434558,-2.4822 -0.2198401,-0.521 -0.4469594,-1.0389 -0.6681759,-1.5593 -0.5971802,-1.3852 -1.1646627,-2.7811 -1.6870435,-4.1962 -0.43316,-1.2472 -0.7261688,-2.5299 -0.9021674,-3.8365 -0.1022888,-1.0321 -0.1653947,-2.0888 0.050851,-3.1126 0.050107,-0.2372 0.128578,-0.4676 0.192867,-0.7014 0.5838726,-1.7846 1.7374751,-3.2792 2.8688068,-4.7473 0.7941664,-0.9846 1.6313576,-1.9339 2.502796,-2.8507 0.8610712,-0.906 0.9276291,-0.9219 1.7681576,-1.833 0.269589,-0.2922 0.528861,-0.5937 0.793291,-0.8906 0.8122931,-0.981 1.6894121,-1.9163 2.4416351,-2.9463 0.355777,-0.4872 0.410388,-0.6089 0.705272,-1.1141 0.408736,-0.8144 0.767235,-1.6524 1.036386,-2.523 0.263091,-0.8119 0.404892,-1.6542 0.575283,-2.4883 0.25741,-0.8491 0.409025,-1.7211 0.573949,-2.591 0.174476,-0.8225 0.287216,-1.6528 0.384732,-2.4872 0.0793,-0.7227 0.181251,-1.4425 0.244995,-2.1669 0.03875,-0.4893 0.06058,-0.9786 0.02241,-1.4682 -0.02999,-0.2959 -0.01575,-0.1471 -0.04267,-0.4465 0,0 1.781268,-0.9277 1.781268,-0.9277 l 0,0 c 0.02675,0.2984 0.0129,0.1492 0.04155,0.4474 0.0493,0.5068 0.02788,1.0084 -0.0341,1.5144 -0.07039,0.7284 -0.16445,1.4539 -0.255248,2.18 -0.119032,0.8368 -0.196917,1.6794 -0.392424,2.5041 -0.167886,0.8696 -0.295784,1.7476 -0.57111,2.5928 -0.175324,0.8365 -0.296654,1.6859 -0.560367,2.5015 -0.04009,0.1315 -0.205586,0.6816 -0.252873,0.8064 -0.231434,0.611 -0.545643,1.1921 -0.821288,1.783 -0.285984,0.4865 -0.390271,0.6926 -0.736101,1.1562 -0.783457,1.0502 -1.708891,1.9913 -2.542053,3.0003 -0.268774,0.3008 -0.532405,0.6063 -0.806323,0.9024 -1.0064581,1.0881 -0.7469821,0.7539 -1.7794741,1.8349 -0.8606636,0.9011 -1.6824249,1.8391 -2.4582931,2.8143 -1.0966702,1.438 -2.2180063,2.9037 -2.7980569,4.6394 -0.064503,0.2248 -0.1441823,0.4458 -0.19351,0.6745 -0.2167356,1.0045 -0.140788,2.0442 -0.054564,3.0577 0.1501366,1.3007 0.428267,2.5745 0.8591609,3.8132 0.4856696,1.4275 1.0828316,2.8094 1.6515869,4.205 0.6401856,1.5952 1.2818554,3.211 2.0810839,4.733 0.3234877,0.5632 0.6354406,1.1147 1.0350763,1.6279 0.08241,0.1058 0.164284,0.2125 0.25493,0.3113 0.05097,0.056 0.228264,0.1045 0.168721,0.1508 -0.517522,0.4023 -1.1194539,0.6823 -1.6791811,1.0234 0.031074,-0.023 0.077752,-0.034 0.093221,-0.069 0.073862,-0.1694 0.047154,-0.5202 0.044132,-0.6677 -0.012596,-0.6149 -0.043213,-1.2297 -0.093398,-1.8428 -0.1751173,-1.9701 -0.470099,-3.9255 -0.668119,-5.8933 -0.2964227,-2.495 -0.7182645,-4.9721 -1.0917394,-7.4564 -0.098661,-0.576 -0.372305,-2.1603 -0.4604559,-2.7285 -0.3022475,-1.9482 -0.5031385,-3.9112 -0.6863968,-5.8736 -0.2227697,-2.5875 -0.3934729,-5.18 -0.3791079,-7.7786 -0.015704,-1.5882 -0.025987,-3.1775 0.040588,-4.7647 0.011602,-0.1265 0.087905,-1.0991 0.2129938,-1.1896 0.8066434,-0.5835 1.3985886,-1.2383 2.3101416,-1.1366 0.4313762,0.1097 0.7666261,0.3339 1.0394761,0.6911 0.39888,0.4975 0.6813353,1.0619 0.8548249,1.6775 0.212121,0.8099 0.340677,1.6269 0.248091,2.4663 -0.0712,1.3759 -0.172594,2.7588 -0.5146859,4.0984 -0.072694,0.259 -0.1361722,0.5207 -0.2180816,0.7769 -0.3696582,1.1561 -0.9209789,2.2511 -1.6272289,3.2376 -0.2903256,0.3889 -0.4234535,0.5874 -0.748172,0.9442 -0.3583275,0.3937 -0.7640373,0.7402 -1.1555913,1.0993 0,0 -1.8897321,0.7827 -1.8897321,0.7827 z"
       id="path4710"
       style="opacity:1;fill:#cccccc" />
  </g>
</svg>
